<?xml version="1.0" encoding="utf-8"?>
<svg viewBox="601.191 233.8103 80.644 25.9077" xmlns="http://www.w3.org/2000/svg">
  <path fill-rule="evenodd" clip-rule="evenodd" d="M 679.96 234.287 L 643.349 234.287 C 642.21 234.415 641.584 235.117 641.473 236.399 L 641.473 257.605 C 641.583 258.885 642.208 259.584 643.339 259.718 L 679.969 259.718 C 681.101 259.584 681.726 258.884 681.835 257.605 L 681.835 236.399 C 681.725 235.117 681.098 234.415 679.96 234.287 Z" fill="#FF9000" transform="matrix(0.9999999999999999, 0, 0, 0.9999999999999999, 0, 2.842170943040401e-14)"/>
  <path fill-rule="evenodd" clip-rule="evenodd" d="M 654.217 244.06 C 653.943 243.669 653.536 243.347 652.995 243.095 C 652.505 242.868 651.963 242.744 651.366 242.722 C 651.356 242.722 651.347 242.721 651.336 242.72 C 650.104 242.654 648.529 243.017 647.793 243.73 L 647.793 238.733 L 644.87 238.733 L 644.87 254.105 L 647.793 254.105 L 647.793 248.527 C 647.793 247.59 647.882 246.882 648.059 246.404 C 648.236 245.924 648.515 245.566 648.896 245.328 C 649.278 245.091 649.711 244.972 650.197 244.972 C 650.619 244.972 650.972 245.065 651.252 245.25 C 651.533 245.435 651.729 245.685 651.84 246 C 651.951 246.315 652.006 247.055 652.006 248.223 L 652.006 254.105 L 654.929 254.105 L 654.929 247.572 C 654.929 246.573 654.879 245.835 654.778 245.36 C 654.678 244.885 654.49 244.451 654.217 244.06 Z" fill="black" transform="matrix(0.9999999999999999, 0, 0, 0.9999999999999999, 0, 2.842170943040401e-14)"/>
  <path fill-rule="evenodd" clip-rule="evenodd" d="M 663.755 247.667 C 663.755 249.261 663.682 250.262 663.537 250.671 C 663.391 251.08 663.12 251.423 662.725 251.698 C 662.33 251.975 661.883 252.113 661.383 252.113 C 660.946 252.113 660.585 252.01 660.301 251.804 C 660.017 251.598 659.821 251.318 659.714 250.965 C 659.606 250.612 659.552 249.653 659.552 248.086 L 659.552 242.969 L 656.629 242.969 L 656.629 250.016 C 656.629 251.064 656.761 251.886 657.024 252.48 C 657.288 253.074 657.714 253.536 658.304 253.864 C 658.894 254.193 659.559 254.357 660.301 254.357 C 660.412 254.357 660.522 254.353 660.631 254.345 C 660.635 254.345 660.637 254.345 660.64 254.345 C 662.5 254.29 663.47 253.439 663.963 252.879 L 663.963 254.105 L 666.678 254.105 L 666.678 242.969 L 663.755 242.969 L 663.755 247.667 Z" fill="black" transform="matrix(0.9999999999999999, 0, 0, 0.9999999999999999, 0, 2.842170943040401e-14)"/>
  <path fill-rule="evenodd" clip-rule="evenodd" d="M 675.577 251.196 C 675.123 251.752 674.574 252.029 673.929 252.029 C 673.089 252.029 672.417 251.637 671.91 250.854 C 671.55 250.302 671.369 249.45 671.369 248.296 C 671.369 247.178 671.602 246.344 672.066 245.795 C 672.531 245.247 673.114 244.972 673.814 244.972 C 674.528 244.972 675.115 245.254 675.572 245.816 C 676.03 246.379 676.259 247.297 676.259 248.568 C 676.259 249.764 676.032 250.639 675.577 251.196 Z M 677.934 244.191 C 677.312 243.499 676.478 243.055 675.569 242.85 C 675.308 242.781 675.011 242.731 674.68 242.716 C 673.478 242.606 671.934 243.091 671.216 243.698 L 671.39 238.733 L 668.466 238.733 L 668.466 254.106 L 671.182 254.106 L 671.182 253.259 C 671.808 253.767 672.813 254.357 674.344 254.357 C 674.404 254.357 674.461 254.357 674.516 254.355 C 674.556 254.357 674.596 254.357 674.636 254.357 C 675.919 254.357 677.01 253.843 677.907 252.816 C 678.806 251.788 679.254 250.324 679.254 248.422 C 679.254 246.583 678.814 245.173 677.934 244.191 Z" fill="black" transform="matrix(0.9999999999999999, 0, 0, 0.9999999999999999, 0, 2.842170943040401e-14)"/>
  <text style="fill: rgb(255, 255, 255); font-family: Arial, sans-serif; font-size: 21.9px; font-weight: 700; white-space: pre;" transform="matrix(0.9999999999999999, 0, 0, 0.9999999999999999, 0, 106.73313299913903)"><tspan x="601.191" y="147.086">J</tspan><tspan x="601.191" dy="1em">​</tspan></text>
  <text style="fill: rgb(255, 255, 255); font-family: Arial, sans-serif; font-size: 21.9px; font-weight: 700; white-space: pre;" x="612.662" y="253.832" transform="matrix(0.9999999999999999, 0, 0, 0.9999999999999999, 0, 2.842170943040401e-14)">o</text>
  <text style="fill: rgb(255, 255, 255); font-family: Arial, sans-serif; font-size: 21.9px; font-weight: 700; white-space: pre;" x="625.98" y="253.845" transform="matrix(0.9999999999999999, 0, 0, 0.9999999999999999, 0, 2.842170943040401e-14)">b</text>
</svg>